<svg width="109" height="27" viewBox="0 0 109 27" fill="none" xmlns="http://www.w3.org/2000/svg">
<path d="M68.4691 8.9946C69.9508 7.64713 71.6048 7.078 73.4954 7.20413C75.4075 7.33027 76.9415 8.14243 78.0944 9.83446C78.4202 9.47452 78.6815 9.14226 78.9859 8.85923C79.9973 7.9117 81.2147 7.37333 82.5796 7.23797C84.1382 7.08415 85.663 7.22258 87.0372 8.09013C88.1838 8.81309 88.9063 9.85292 89.3336 11.1266C89.6748 12.1448 89.6717 13.197 89.6717 14.2491C89.6687 17.8178 89.6594 21.3864 89.6748 24.955C89.6779 25.3826 89.5457 25.478 89.1399 25.4688C87.9533 25.4411 86.7636 25.4596 85.5738 25.4596C84.9805 25.4596 84.9805 25.4596 84.9805 24.8443C84.9805 21.2326 84.9805 17.6209 84.9805 14.0092C84.9805 13.357 84.9098 12.7294 84.4794 12.191C84.1474 11.7757 83.7263 11.5265 83.2006 11.4557C81.5374 11.2281 80.0096 11.8557 79.4409 13.5477C79.2656 14.0676 79.1795 14.6429 79.1765 15.1936C79.1519 18.4607 79.158 21.7279 79.1703 24.995C79.1703 25.3519 79.0689 25.4688 78.7061 25.4657C77.4642 25.4472 76.2191 25.4503 74.9771 25.4657C74.6543 25.4688 74.5406 25.3734 74.5437 25.0473C74.5529 22.9431 74.5529 20.8388 74.5406 18.7345C74.5314 17.0671 74.516 15.3997 74.473 13.7353C74.4576 13.1416 74.2547 12.5879 73.8674 12.1141C73.231 11.3388 72.3641 11.3542 71.4972 11.4496C69.8279 11.6372 68.7611 13.197 68.7366 14.7167C68.7243 15.4674 68.6382 16.2149 68.6228 16.9656C68.6105 17.5839 68.672 18.2054 68.6751 18.8237C68.6781 19.3067 68.629 19.7867 68.629 20.2697C68.6259 20.9188 68.6443 21.5648 68.6566 22.2139C68.6628 22.6139 68.6904 23.0169 68.6843 23.4168C68.6751 23.9675 68.629 24.5182 68.6197 25.0688C68.6167 25.3457 68.5183 25.4596 68.2324 25.4565C66.975 25.4472 65.7177 25.4472 64.4604 25.4626C64.1161 25.4657 64.0546 25.315 64.0576 25.0166C64.0638 22.5831 64.0546 20.1497 64.0546 17.7162C64.0546 14.4614 64.0669 11.2065 64.0546 7.9517C64.0546 7.55792 64.156 7.43486 64.5557 7.44409C65.6624 7.4687 66.7691 7.4687 67.8758 7.44409C68.2477 7.43486 68.3431 7.56099 68.3431 7.90862C68.3369 8.23165 68.4138 8.55159 68.4691 8.9946Z" fill="#B0B0B0"/>
<path d="M102.405 17.9224C100.631 17.9224 98.8605 17.9254 97.0867 17.9224C96.3458 17.9224 96.3643 17.9316 96.5118 18.6546C97.0467 21.251 99.2386 22.1463 101.51 21.7217C102.768 21.4879 103.696 20.8419 104.077 19.5467C104.111 19.4329 104.326 19.3006 104.459 19.2975C105.621 19.2791 106.78 19.2821 107.942 19.2883C108.455 19.2914 108.517 19.3498 108.412 19.8697C108.2 20.9096 107.84 21.8909 107.192 22.7462C106.014 24.2998 104.437 25.1704 102.54 25.5611C100.496 25.9826 98.5223 25.798 96.601 25.0104C95.3775 24.509 94.3722 23.7122 93.5637 22.66C92.1649 20.845 91.6977 18.7561 91.6854 16.5164C91.6761 14.6675 92.0174 12.9047 92.9089 11.2712C93.6344 9.94215 94.6581 8.91155 95.9923 8.18859C97.2804 7.49025 98.6638 7.17338 100.121 7.20722C100.84 7.2226 101.572 7.24721 102.273 7.38258C105.353 7.97632 107.244 9.86524 108.114 12.8463C108.566 14.3937 108.532 15.9781 108.513 17.5624C108.51 17.8301 108.375 17.9224 108.129 17.9224C107.201 17.9224 106.275 17.9316 105.347 17.9347C104.363 17.9377 103.383 17.9347 102.399 17.9347C102.405 17.9285 102.405 17.9254 102.405 17.9224ZM96.4503 14.2399C96.7516 14.2553 96.9145 14.2676 97.0744 14.2676C98.3594 14.2676 99.6444 14.2676 100.929 14.2676C101.75 14.2676 102.571 14.2676 103.389 14.2676C103.604 14.2676 103.779 14.2399 103.739 13.9569C103.552 12.6494 102.78 11.465 101.323 11.1358C99.4969 10.7205 97.8522 11.345 97.0099 12.8371C96.7762 13.2493 96.6532 13.72 96.4503 14.2399Z" fill="#B0B0B0"/>
<path d="M18.4459 16.6087C18.5043 11.0712 22.9189 6.73342 28.188 6.61344C34.029 6.47808 38.4589 11.1604 38.465 16.5472C38.4712 22.0847 34.1273 26.484 28.6584 26.5824C22.9312 26.684 18.5351 22.1555 18.4459 16.6087ZM34.3548 16.6333C34.404 13.3262 31.668 10.6712 28.4401 10.6866C25.1415 10.702 22.427 13.4615 22.5592 16.8425C22.676 19.8236 25.1938 22.6016 28.6922 22.4877C31.8094 22.3893 34.3886 19.7343 34.3548 16.6333Z" fill="#B0B0B0"/>
<path d="M53.7591 21.4079C53.9681 21.4325 54.0819 21.4571 54.1987 21.4571C56.2707 21.4664 58.3396 21.4725 60.4116 21.4756C60.9988 21.4756 61.586 21.4725 62.1701 21.451C62.4867 21.4387 62.6097 21.5556 62.6066 21.8786C62.5943 22.943 62.5943 24.0075 62.6066 25.0719C62.6097 25.3857 62.4775 25.4657 62.1885 25.4657C59.1697 25.4595 56.1508 25.4657 53.132 25.4657C51.478 25.4657 49.8272 25.4534 48.1733 25.4626C47.8228 25.4657 47.6814 25.3642 47.6937 24.9981C47.7152 24.3274 47.8075 23.6352 47.6722 22.9923C47.4693 22.0324 48.0903 21.5094 48.5668 20.9003C50.2853 18.7099 52.0222 16.5349 53.7529 14.3537C54.3893 13.5508 55.0318 12.754 55.6682 11.9541C55.7573 11.8434 55.828 11.7141 55.951 11.5265C55.745 11.5142 55.6159 11.4988 55.4868 11.4988C53.1904 11.4988 50.897 11.4988 48.6006 11.4988C47.9766 11.4988 47.9765 11.5019 47.9796 10.862C47.9827 9.86521 47.9919 8.86539 47.9796 7.86863C47.9735 7.54868 48.0719 7.44716 48.3977 7.45023C52.8799 7.45946 57.362 7.45946 61.8442 7.45331C62.1485 7.45331 62.2838 7.51176 62.2746 7.85939C62.25 8.74847 62.2715 9.63756 62.2592 10.5266C62.2561 10.6651 62.2162 10.8312 62.1301 10.9358C60.9588 12.4094 59.7753 13.8738 58.5948 15.3412C57.1253 17.1686 55.6528 18.9991 54.1833 20.8295C54.0573 20.9864 53.9435 21.1526 53.7591 21.4079Z" fill="#B0B0B0"/>
<path d="M0.443542 7.45946C2.06056 7.45946 3.61917 7.45023 5.17471 7.47484C5.30075 7.47792 5.48828 7.67173 5.54054 7.81325C6.11234 9.40375 6.66261 11.0035 7.21904 12.6001C7.98759 14.8152 8.75614 17.0333 9.52776 19.2483C9.56157 19.3467 9.62305 19.439 9.69683 19.5897C9.77369 19.479 9.83825 19.4144 9.86591 19.3375C10.7882 16.6549 11.7043 13.9692 12.6296 11.2896C13.0385 10.1052 13.4627 8.92383 13.9023 7.74864C13.9484 7.62559 14.136 7.47792 14.2589 7.47484C15.7069 7.45638 17.1548 7.46253 18.6027 7.46561C18.6427 7.46561 18.6796 7.48407 18.7688 7.5056C18.6335 7.89631 18.5074 8.27779 18.366 8.65619C17.4499 11.0958 16.5307 13.5323 15.6054 15.9688C14.8891 17.8547 14.1544 19.7343 13.4381 21.6233C13.0047 22.7677 12.5835 23.9183 12.1654 25.0688C12.0793 25.3088 11.9687 25.4688 11.6766 25.4657C10.3393 25.4595 8.99899 25.4626 7.66172 25.4749C7.40349 25.478 7.30819 25.3365 7.22826 25.1273C6.65647 23.6383 6.07545 22.1493 5.50057 20.6603C4.71973 18.6361 3.94504 16.6087 3.16727 14.5844C2.28805 12.2925 1.40576 10.0006 0.52347 7.71173C0.498876 7.64405 0.483507 7.57944 0.443542 7.45946Z" fill="#B0B0B0"/>
<path d="M40.9028 7.45946C41.9112 7.45946 42.8765 7.45946 43.8418 7.45946C44.266 7.45946 44.6902 7.47792 45.1114 7.45331C45.4403 7.43178 45.5326 7.55483 45.5295 7.8717C45.5172 9.26532 45.5326 10.6589 45.5326 12.0525C45.5326 16.3441 45.5264 20.6327 45.5233 24.9242C45.5233 25.4688 45.5203 25.4626 44.9761 25.4595C43.7618 25.4565 42.5445 25.4503 41.3302 25.4626C41.0166 25.4657 40.8936 25.3703 40.8967 25.0442C40.909 23.2722 40.9028 21.4971 40.8998 19.7251C40.8967 17.9377 40.8844 16.1503 40.8844 14.3629C40.8844 12.7386 40.8936 11.1173 40.8998 9.49298C40.9059 8.82847 40.9028 8.16088 40.9028 7.45946Z" fill="#B0B0B0"/>
<path d="M43.0179 3.94621C41.2287 3.94621 39.4395 3.95544 37.6534 3.94313C36.5559 3.93698 35.7782 3.1771 35.7566 2.15881C35.7351 1.1559 36.5344 0.340656 37.6995 0.33758C39.4211 0.32835 41.1395 0.33143 42.8611 0.33143C44.7179 0.33143 46.5747 0.328347 48.4315 0.3345C49.7964 0.337577 50.6603 1.46662 50.2791 2.73103C50.067 3.44168 49.2892 3.94928 48.4254 3.94928C46.6208 3.94621 44.8193 3.94621 43.0179 3.94621Z" fill="#B0B0B0"/>
</svg>
