<svg width="17" height="15" viewBox="0 0 17 15" fill="none" xmlns="http://www.w3.org/2000/svg">
<path d="M16.6296 0.789681C16.6341 0.585355 16.4507 0.427923 16.247 0.461419C14.9031 0.681376 10.4978 1.83922 10.6182 7.57821C9.99693 7.25107 9.27885 7.06349 8.51237 7.06349C7.81905 7.06349 7.16512 7.21758 6.58548 7.48889C6.65864 1.82694 2.29049 0.679143 0.954501 0.461419C0.751908 0.427923 0.568447 0.586471 0.571823 0.789681C0.674246 5.5919 3.99228 7.4621 5.63554 8.09517C4.78127 8.81757 4.24552 9.85595 4.24552 11.0104C4.24552 12.4217 5.04689 13.6611 6.25008 14.3589C6.5731 14.5465 6.97941 14.3143 6.97941 13.9436C6.97941 13.785 6.8995 13.6377 6.76894 13.5472C6.00134 13.0157 5.50048 12.1437 5.50048 11.1567C5.50048 9.53774 6.84885 8.22581 8.51125 8.22581C10.1736 8.22581 11.522 9.53774 11.522 11.1567C11.522 12.1225 11.0414 12.98 10.3008 13.5137C10.1736 13.6053 10.0971 13.7493 10.0971 13.9056V13.9123C10.0971 14.2864 10.509 14.5186 10.8309 14.3254C12.0015 13.622 12.7758 12.4005 12.7758 11.0127C12.7758 9.88274 12.2615 8.86335 11.4387 8.1443C13.0347 7.55812 16.5238 5.71695 16.6296 0.789681Z" fill="#747474"/>
</svg>
